<svg xmlns="http://www.w3.org/2000/svg" xmlns:xlink="http://www.w3.org/1999/xlink" width="1024" height="1024" viewBox="0 0 1024 1024">
  <defs>
    <linearGradient id="linear-gradient" x1="0.079" y1="0.127" x2="0.898" y2="1.061" gradientUnits="objectBoundingBox">
      <stop offset="0"/>
      <stop offset="1" stop-color="#545454"/>
    </linearGradient>
    <clipPath id="clip-App_Icon_1">
      <rect width="1024" height="1024"/>
    </clipPath>
  </defs>
  <g id="App_Icon_1" data-name="App Icon – 1" clip-path="url(#clip-App_Icon_1)">
    <rect width="1024" height="1024" fill="#fff"/>
    <path id="Subtraction_1" data-name="Subtraction 1" d="M2924.725,459.45a231.418,231.418,0,0,1-46.3-4.667,228.467,228.467,0,0,1-82.144-34.566,230.389,230.389,0,0,1-83.23-101.072,228.569,228.569,0,0,1-13.386-43.122,231.951,231.951,0,0,1,0-92.6,228.474,228.474,0,0,1,34.566-82.144,230.4,230.4,0,0,1,101.072-83.231,228.585,228.585,0,0,1,43.122-13.386,231.966,231.966,0,0,1,92.6,0,228.466,228.466,0,0,1,82.144,34.566A230.386,230.386,0,0,1,3136.4,140.306a228.568,228.568,0,0,1,13.386,43.122,231.951,231.951,0,0,1,0,92.6,228.473,228.473,0,0,1-34.566,82.144,230.4,230.4,0,0,1-101.073,83.23,228.59,228.59,0,0,1-43.122,13.386A231.426,231.426,0,0,1,2924.725,459.45Zm0-284.134a54.238,54.238,0,1,0,21.179,4.276A54.07,54.07,0,0,0,2924.725,175.316Z" transform="translate(-2274 282.55)" fill="url(#linear-gradient)"/>
    <rect id="Rectangle_12" data-name="Rectangle 12" width="449" height="658" rx="14" transform="translate(218 175)" fill="#1a1a1a"/>
  </g>
</svg>
